<svg width="12" height="13" viewBox="0 0 12 13" fill="none" xmlns="http://www.w3.org/2000/svg">
<path d="M4 1.25H5.75V4.75H4C3.0335 4.75 2.25 3.9665 2.25 3C2.25 2.0335 3.0335 1.25 4 1.25Z" stroke="#18C1B6" stroke-width="0.5"/>
<path d="M7.5 1.25H5.75V4.75H7.5C8.4665 4.75 9.25 3.9665 9.25 3C9.25 2.0335 8.4665 1.25 7.5 1.25Z" stroke="#18C1B6" stroke-width="0.5"/>
<path d="M7.5 4.75H5.75V8.25H7.5C8.4665 8.25 9.25 7.4665 9.25 6.5C9.25 5.5335 8.4665 4.75 7.5 4.75Z" stroke="#18C1B6" stroke-width="0.5"/>
<path d="M4 4.75H5.75V8.25H4C3.0335 8.25 2.25 7.4665 2.25 6.5C2.25 5.5335 3.0335 4.75 4 4.75Z" stroke="#18C1B6" stroke-width="0.5"/>
<path d="M4 8.25H5.75V10C5.75 10.9665 4.9665 11.75 4 11.75C3.0335 11.75 2.25 10.9665 2.25 10C2.25 9.0335 3.0335 8.25 4 8.25Z" stroke="#18C1B6" stroke-width="0.5"/>
</svg>
